<?xml version="1.0"?><svg width="1944" height="2592" xmlns="http://www.w3.org/2000/svg">
 <title>large gray city skyline</title>
 <metadata id="metadata7">image/svg+xml</metadata>

 <g>
  <title>Layer 1</title>
  <path fill="#000000" d="m-404.503937,2103.384033c0,-434.362915 0.252319,-544.280029 1.25,-544.461548c0.6875,-0.125122 2.95462,-0.60083 5.037903,-1.057007c2.800812,-0.613159 3.712891,-0.377075 3.5,0.906738c-0.158295,0.9552 0.622192,2.395874 1.734619,3.20166c1.14328,0.828247 1.87207,2.495239 1.676697,3.835205c-0.379913,2.603638 3.191284,3.447144 4.300781,1.015869c0.339905,-0.745117 0.14151,-1.35437 -0.440979,-1.35437c-0.582428,0 -1.059021,-0.609619 -1.059021,-1.354492c0,-0.744873 1.605316,-1.354248 3.567413,-1.354248c3.086395,0 3.483582,0.357422 2.946106,2.650879c-0.502319,2.143677 0.005096,2.871094 2.650574,3.799438c2.288116,0.803101 3.445313,2.144043 3.848907,4.459473c0.788513,4.523438 3.408203,4.238892 3.803406,-0.41333c0.174011,-2.048706 0.849091,-3.725708 1.5,-3.726929c0.802795,-0.001709 1.183594,3.157471 1.183594,9.819214c0,8.918579 0.183899,9.821533 2,9.821533c1.324097,0 2.109894,-1.049805 2.325195,-3.106445c0.243225,-2.322388 0.789703,-2.906616 2.165924,-2.314819c1.012299,0.435059 2.119476,0.17981 2.460388,-0.567383c0.408508,-0.894775 1.462006,-0.838623 3.088409,0.165161c1.357697,0.837646 2.685486,1.22937 2.950684,0.869995c0.819092,-1.109253 0.891998,-9.755859 0.113312,-13.44812c-0.687714,-3.26123 -0.540009,-3.463867 2.13559,-2.931885c1.784912,0.354736 3.351807,-0.20813 4.134308,-1.484985c1.115692,-1.820923 1.481384,-1.756592 3.193085,0.561768c2.447205,3.314575 2.478607,5.266479 0.070801,4.41394c-2.387604,-0.845703 -3.699799,4.79541 -1.734589,7.457031c1.103302,1.494019 1.712799,1.507202 3.408508,0.072876c1.592285,-1.346802 2.594086,-1.390137 4.376678,-0.189331c4.372009,2.945313 17.151428,4.154663 22.811707,2.15918c2.83902,-1.001099 3.562408,-1.96521 3.830292,-5.104492c0.18161,-2.128784 -0.4711,-5.885986 -1.450378,-8.348877c-1.612915,-4.056274 -1.634796,-4.707764 -0.2323,-6.916138c0.851593,-1.341064 1.827698,-3.504883 2.169006,-4.808228c0.760986,-2.906494 2.269989,-3.074463 3.044983,-0.338745c0.316589,1.11731 1.039703,2.031616 1.606995,2.031616c1.323822,0 1.349518,-4.991455 0.031403,-6.094604c-1.732788,-1.450562 -1.086792,-3.385986 1.130005,-3.385986c1.933014,0 2.083191,-0.563965 1.622894,-6.093994c-0.602905,-7.245483 -2.144379,-10.158569 -5.375397,-10.158569c-1.307587,0 -2.377502,-0.609619 -2.377502,-1.35437c0,-0.744995 0.86731,-1.354492 1.927399,-1.354492c1.06012,0 2.798401,-1.499634 3.862915,-3.332397c1.699799,-2.926636 2.160583,-3.109497 3.78479,-1.500854c1.621399,1.605591 1.673798,2.118042 0.424896,4.15625c-1.244507,2.030884 -1.208191,2.538696 0.28772,4.020508c2.007385,1.987671 2.244202,8.491699 0.498291,13.681519c-1.0849,3.224976 -0.9552,3.892944 1.219208,6.277344c2.044189,2.242065 3.317688,2.523926 7.963989,1.763428c3.041992,-0.497925 6.582306,-1.819092 7.867584,-2.935913c3.448822,-2.996826 3.790222,-1.182861 0.710419,3.774292l-2.701691,4.348511l5.109283,3.404663c4.725311,3.148682 5.231903,3.238525 6.741302,1.194092c1.274902,-1.726563 1.374695,-2.630371 0.456207,-4.129395c-0.64682,-1.05542 -1.099304,-3.066895 -1.005707,-4.469604c0.454315,-6.805176 -0.182404,-9.999878 -1.993011,-9.999878c-2.482574,0 -8.153595,-3.9198 -8.153595,-5.63562c0,-0.845825 1.491608,-1.032959 3.878693,-0.486816c3.660919,0.837646 3.938721,0.654297 4.948029,-3.266846c1.151978,-4.47583 2.1633,-4.981812 5.346375,-2.674683c1.428009,1.035156 2.357697,1.051758 3.093323,0.055542c1.416595,-1.918701 9.640381,-0.329224 12.441376,2.404541c1.370209,1.337402 2.008514,3.053833 1.682617,4.525146c-0.28891,1.303345 -0.044907,2.369995 0.542191,2.369995c0.587112,0 1.067398,-0.844849 1.067398,-1.877808c0,-2.283325 5.627502,-3.635742 8.672501,-2.084595c2.898209,1.476563 5.049011,-1.66687 2.839813,-4.150024c-0.831802,-0.935059 -1.512314,-2.920288 -1.512314,-4.411987c0,-2.29126 -0.465698,-2.586304 -3,-1.899658c-2.260086,0.612183 -3,0.314697 -3,-1.206543c0,-1.394043 -0.897995,-1.926636 -2.900391,-1.719971c-3.592102,0.370605 -6.293304,-2.483643 -5.897888,-6.232666c0.239471,-2.269653 0.889893,-2.740234 3.298279,-2.386963c1.650009,0.242065 3.787506,1.402954 4.75,2.580078c2.275101,2.782104 2.275101,0.992676 0,-2.214111c-1.629791,-2.297363 -3.4729,-3.192871 -10.512207,-5.107422c-3.587097,-0.975586 -4.374084,-2.866333 -2.339996,-5.621338c1.344421,-1.820923 1.984314,-1.917969 3.604797,-0.547363c3.121307,2.640015 3.998413,2.011963 3.347412,-2.396484c-0.449005,-3.040649 -0.230011,-4.063232 0.869995,-4.063232c2.149002,0 5.3302,5.297852 4.967102,8.272217c-0.235703,1.931274 0.2901,2.562866 2.133408,2.562866c1.605194,0 2.625992,0.931152 2.969193,2.708862c0.702301,3.636719 3.710297,3.534058 3.710297,-0.126953c0,-1.696411 -0.803391,-3.119995 -2,-3.543945c-1.099991,-0.389404 -2,-1.196899 -2,-1.793823c0,-0.597168 -0.259399,-2.001343 -0.576492,-3.120361c-0.391098,-1.380371 0.146103,-2.178101 1.671204,-2.480957c1.4216,-0.282349 3.100998,-2.529297 4.569702,-6.114624c2.123993,-5.185425 2.186188,-5.852661 0.729492,-7.825684c-1.341797,-1.817383 -1.381805,-2.500854 -0.254303,-4.340698c0.877808,-1.432495 1.467209,-7.286987 1.713104,-17.016235l0.374802,-14.832397l2.886292,-1.362427c1.587402,-0.749634 2.942413,-1.91272 3.0112,-2.584717c0.06871,-0.671875 0.235107,-2.897827 0.369705,-4.946289c0.134598,-2.048584 0.730804,-10.901123 1.324905,-19.672485c0.594101,-8.771362 0.820297,-18.919678 0.502701,-22.552002c-0.572098,-6.542847 0.410995,-22.582642 1.309494,-21.365601c0.256805,0.347778 0.642303,10.912476 0.856705,23.477051c0.214294,12.564575 0.417099,23.071777 0.450592,23.348999c0.033508,0.277588 0.755905,-0.276611 1.605408,-1.231567c1.038696,-1.16748 1.347,-2.953491 0.941391,-5.454224c-0.350388,-2.160645 -0.130692,-4.113892 0.524307,-4.662109c0.766403,-0.641724 0.907898,-3.717529 0.442001,-9.609619c-0.476898,-6.03125 -0.34581,-8.665894 0.43129,-8.665894c0.614105,0 1.116501,-1.227173 1.116501,-2.727295c0,-1.499878 0.5625,-3.956299 1.25,-5.45874c1.030304,-2.251465 0.986404,-2.95874 -0.25,-4.023926c-1.161499,-1.00061 -0.879395,-1.297119 1.25,-1.31311c1.512512,-0.011475 2.696701,-0.477783 2.631607,-1.036377c-0.065201,-0.559082 -0.058304,-1.930298 0.015305,-3.047485c0.118896,-1.805786 0.241394,-1.805786 1.103088,0c0.8284,1.736084 0.971603,1.686768 0.984711,-0.338501c0.008392,-1.303711 0.663696,-2.370117 1.456299,-2.370117c2.088394,0 2.917999,-2.522705 1.55899,-4.740479c-1.586197,-2.588745 -0.414093,-4.740356 2.582108,-4.740356c2.398392,0 2.420395,-0.089966 0.825897,-3.385742c-1.342102,-2.774414 -1.38269,-3.385986 -0.224503,-3.385986c0.777512,0 3.281097,-2.430664 5.563599,-5.401123c2.282501,-2.970337 4.424713,-4.798706 4.760513,-4.062988c1.021088,2.237549 3.279297,1.493286 3.131287,-1.032471c-0.09819,-1.675415 0.593903,-2.370117 2.361099,-2.370117c2.051605,0 2.548004,0.728882 2.767807,4.063232c0.420898,6.386841 2.404404,15.575195 3.362198,15.575195c0.4785,0 0.869995,-0.839722 0.869995,-1.865845c0,-1.026001 0.711212,-2.665039 1.580414,-3.641968c0.919693,-1.033813 1.396286,-3.081299 1.139893,-4.897583c-0.529907,-3.75415 1.927002,-7.313477 2.835297,-4.107666c0.31871,1.124634 0.477997,2.869263 0.354202,3.877197c-0.287003,2.335205 1.122299,6.951294 2.517303,8.245117c0.721191,0.668823 0.663101,1.001709 -0.177109,1.015747c-0.6875,0.01123 -1.25,1.239502 -1.25,2.72937c0,1.489868 0.340103,2.708862 0.755905,2.708862c0.415695,0 1.382797,1.980713 2.149109,4.401733c2.004288,6.332397 3.257797,8.267944 4.124496,6.368652c0.431992,-0.946655 0.946396,-0.249878 1.3255,1.796021c0.861099,4.646484 4.206299,6.058105 18.144989,7.656006c16.320999,1.87085 29.567406,4.052856 30.78331,5.070679c0.663895,0.555542 0.767998,13.799438 0.305794,38.902466c-0.598694,32.515625 -0.485298,38.454346 0.778702,40.768799c1.307304,2.393188 1.305,2.970703 -0.019096,4.958862c-2.108406,3.166138 -1.376999,9.783569 1.151299,10.417114c1.099998,0.275513 2.3759,1.386353 2.835396,2.46814c0.459503,1.081787 1.809502,2.476563 3,3.099365c1.993103,1.04248 2.020905,1.210815 0.3508,2.123169c-1.270493,0.69397 -2.260895,0.126221 -3.306694,-1.895752c-1.953102,-3.776855 -4.348206,-3.691284 -4.497902,0.160522c-0.794998,20.461182 -0.677498,28.237305 0.419296,27.748169c0.6595,-0.293945 1.342903,-1.85791 1.5186,-3.475586c0.2034,-1.872192 1.0327,-2.941162 2.281403,-2.941162c2.002197,0 2.280098,-0.592529 3.334602,-7.110596c0.488396,-3.018555 1.151901,-3.724487 3.500198,-3.724487c1.593697,0 3.063103,-0.672607 3.265396,-1.494385c0.202301,-0.821899 0.942406,1.541992 1.644707,5.253052l1.276794,6.747437l5.106606,0.664673c5.534294,0.720337 7.770798,3.258057 7.770798,8.817627c0,2.627197 0.376205,3.056885 2.048012,2.338135c2.229691,-0.958374 4.951988,1.327393 4.951988,4.158447c0,0.975586 -0.900002,2.161255 -2,2.634155c-2.913704,1.252563 -2.446404,3.380859 0.75,3.416016l2.75,0.030151l-2.5,2.668579c-2.118401,2.261353 -2.271004,2.873901 -1,4.012329c0.825012,0.739014 3.115295,1.352905 5.0895,1.364258c2.866196,0.016602 3.819,-0.661499 4.7285,-3.365112c0.856102,-2.544678 1.952095,-3.424194 4.410599,-3.540405c5.928101,-0.279785 8.577999,-0.994873 11.644001,-3.142212c4.6562,-3.261108 5.9231,-2.681274 7.250198,3.317871c0.963699,4.355957 1.570301,5.280884 3.047802,4.645752c1.014599,-0.436157 4.370598,0.773315 7.457897,2.6875c3.0872,1.914307 6.185699,3.480591 6.8853,3.480591c1.706303,0 2.390701,2.774658 1.769802,7.173584c-0.8064,5.713623 0.262398,8.148804 2.776699,6.326416c1.789301,-1.296997 1.9925,-2.296265 1.412701,-6.94458c-0.5709,-4.576416 -0.349701,-5.740356 1.4079,-7.407471c1.146799,-1.088135 2.4589,-3.931641 2.915699,-6.31897c1.042,-5.446777 3.1649,-5.561035 5.1651,-0.278076c0.846001,2.234497 1.632,4.291626 1.746601,4.571045c0.2915,0.710327 5.2794,0.637207 5.813,-0.085449c0.5952,-0.80603 4.38,-160.064819 5.9806,-251.659424c0.3189,-18.250366 0.826,-35.467773 1.1269,-38.26123c0.5921,-5.497559 2.3615,-7.003784 2.3865,-2.031616c0.0084,1.675903 0.4375,3.951538 0.9534,5.056641c0.745,1.595703 1.2417,1.038086 2.4125,-2.708618c0.8109,-2.595093 2.4068,-5.485107 3.5466,-6.422729c1.1397,-0.937256 2.0722,-2.917969 2.0722,-4.401733c0,-2.51001 0.676801,-2.696167 9.750001,-2.682129c14.110199,0.021484 17.25,0.919922 17.25,4.936035c0,2.234253 0.7976,3.652954 2.565098,4.563232c3.561901,1.833984 11.164402,1.654663 12.049301,-0.28418c0.6889,-1.509888 1.195999,-21.226929 2.962601,-115.210083c0.402599,-21.41626 1.056198,-38.938354 1.452499,-38.938354c1.014702,0 2.337601,8.017456 2.122902,12.866455l-0.179901,4.063232l1.535999,-3.699463c1.371601,-3.303589 2.073502,-3.683105 6.559105,-3.546265c3.973297,0.121338 5.538498,-0.502197 7.488495,-2.983398c1.808502,-2.301147 2.133202,-3.414917 1.219002,-4.180054c-0.727089,-0.608887 -1.585503,-0.222534 -2.060402,0.92688c-0.4478,1.083618 -1.826698,1.969971 -3.0644,1.969971c-1.237701,0 -2.715096,0.629761 -3.283104,1.398926c-0.567993,0.769165 -1.760395,1.020508 -2.649696,0.55835c-1.4505,-0.753784 -1.564701,-4.488647 -1.108799,-36.273926c0.605698,-42.237671 0.592598,-43.151978 -0.642399,-44.824585c-1.605003,-2.17395 -1.115902,-3.09668 2.103199,-3.968628c2.389202,-0.647217 3.441998,-2.032593 4.749996,-6.250244c1.250404,-4.032104 2.256302,-5.422363 3.930504,-5.432617c1.237495,-0.007446 2.256912,0.748169 2.265312,1.679321c0.0103,1.137939 0.256187,1.216553 0.75,0.239746c1.394287,-2.757935 4.427086,-3.290771 7.57589,-1.331055c1.737297,1.081299 4.688499,2.477539 6.558098,3.103027c4.196899,1.403809 6.323898,6.950684 3.102913,8.091553c-2.556511,0.905273 -2.608612,3.101929 -0.073616,3.101929c3.541603,0 5.358215,3.951538 4.625504,10.061646c-0.363602,3.032471 -0.634102,6.427856 -0.600899,7.545166c0.033211,1.117432 0.037598,4.350098 0.009796,7.184082c-0.036499,3.730103 0.582703,5.908203 2.243301,7.890747c1.261497,1.506104 1.822197,2.427734 1.245903,2.047607c-2.391899,-1.577637 -3.394699,1.803467 -3.973106,13.39563c-1.2463,24.978638 -0.674194,32.39856 2.586906,33.553589c1.927696,0.682739 2.242599,-0.465698 3.270096,-11.927979c0.200302,-2.234741 0.431702,5.496338 0.514114,17.180176c0.094086,13.340698 -0.277313,22.661499 -0.998314,25.055786c-1.6483,5.474121 -3.425186,110.949951 -1.910698,113.421387c0.612312,0.999268 6.133301,2.863281 12.274597,4.144165c6.139099,1.280273 11.807701,2.663574 12.596901,3.073608c1.230904,0.639893 1.381897,12.631714 1.061203,84.293457c-0.3153,70.445679 -0.152802,83.909424 1.036301,85.855225c0.775597,1.269409 2.076195,1.961792 2.890205,1.538696c0.820587,-0.426514 2.056992,0.34668 2.775299,1.735596c0.712494,1.377808 6.676987,5.717529 13.254486,9.643799c10.62561,6.343018 12.022308,7.567383 12.526199,10.979736c0.4664,3.159058 1.150711,3.916626 3.855408,4.268799l3.288193,0.428345l0.104004,67.041748c0.057205,36.872803 0.169708,67.766724 0.25,68.65271c0.080307,0.88623 1.833496,1.800293 3.895996,2.031616c3.428101,0.384277 3.799713,0.827393 4.328903,5.160767c0.989807,8.105225 1.808899,1.738525 2.328796,-18.103638c0.270706,-10.329224 0.627213,-18.949951 0.792206,-19.157104c0.1651,-0.207153 4.125107,-0.804199 8.800095,-1.326416c4.675003,-0.522461 10.975006,-1.348267 14,-1.835693l5.5,-0.88562l0.5,-17.741821c0.33551,-11.905151 0.938004,-18.455322 1.831406,-19.910278c0.828506,-1.349121 3.283707,-2.321289 6.5,-2.573853c5.027206,-0.394409 5.1772,-0.525879 5.481705,-4.80249c0.245895,-3.453369 1.499298,-5.705566 5.84169,-10.49646c3.04071,-3.354614 5.824814,-6.13269 6.186905,-6.17334c0.362,-0.040527 2.683304,-0.358154 5.158295,-0.705566c5.841812,-0.820557 6.772003,-0.802368 11.263809,0.22229c5.816391,1.325928 6.736191,-0.55188 6.736191,-13.752686c0,-10.110352 0.228607,-11.486572 2.222504,-13.378052c1.222412,-1.159546 3.961517,-2.108276 6.086914,-2.108276c3.334686,0 4.012482,-0.531738 4.945496,-3.879639c1.5159,-5.438965 4.417084,-7.437012 10.329987,-7.112915c3.609406,0.197754 5.476501,-0.342285 6.401398,-1.851563c1.075714,-1.755737 2.645813,-1.971313 8.909821,-1.223877c4.182098,0.499146 8.728882,1.501099 10.103882,2.226807c1.375,0.725586 4.343109,1.551636 6.595795,1.835449l4.095917,0.516113l0.650085,-17.263794c0.357513,-9.495117 0.651917,-28.347046 0.654114,-41.893188c0.002289,-13.546021 0.430695,-26.148926 0.952209,-28.006592c0.637573,-2.271362 1.8526,-3.519775 3.710388,-3.8125c3.675201,-0.579224 4.119995,-3.219482 4.241791,-25.174805l0.099701,-17.967529l3.25,-1.910645c1.787506,-1.050781 4.059021,-2.252075 5.047821,-2.669067c1.462585,-0.617065 1.674896,-1.645386 1.138672,-5.516357c-0.432495,-3.122314 -0.276978,-4.758057 0.452209,-4.758057c0.611206,0 1.111298,1.547852 1.111298,3.439819c0,6.427734 3.809814,13.460327 16.415894,30.302734c6.921326,9.246948 12.585815,17.474854 12.587799,18.284058c0.003723,1.435425 7.411499,6.211548 9.634399,6.211548c0.614319,0 1.686615,-0.929565 2.382813,-2.065674c1.1297,-1.843506 1.46701,-1.819092 3.135895,0.226318c1.098694,1.346558 5.061096,2.897217 9.606598,3.758789l7.736603,1.466553l-0.394806,68.734741l-0.394775,68.734619l2.894775,0.143555c1.592102,0.078857 4.167816,0.027954 5.723602,-0.113403c1.555908,-0.141235 3.719116,0.834351 4.80722,2.167969c1.452881,1.781128 4.287292,2.621948 10.671204,3.16687c9.788696,0.835083 11.19278,1.595459 11.19278,6.061279c0,5.515503 1.727203,6.057251 19.343811,6.067627c13.305206,0.007935 16.856781,-0.373657 17.276581,-1.855103c0.290619,-1.026001 0.885803,-6.030762 1.322601,-11.122192l0.794128,-9.256958l0.14679,8.126343c0.125397,6.946899 1.771393,14.900513 2.242401,10.834961c0.249908,-2.157593 0.517883,-6.420166 0.702698,-11.173584c0.274292,-7.059937 2.17099,-5.066284 2.17099,2.281738c0,10.233643 1.251617,13.479736 5.139801,13.330078c2.275604,-0.087524 3.6651,0.744385 4.6716,2.797363c1.145996,2.337646 2.421509,2.922241 6.376312,2.922241c8.672302,0 8.812286,0.312622 8.812286,19.686157c0,15.612183 0.141205,16.881958 1.877594,16.881958c1.032623,0 2.450104,-0.93457 3.150024,-2.07666c1.133698,-1.850098 1.501801,-1.793213 3.372498,0.521606c1.154877,1.428955 3.089386,3.004028 4.298706,3.500244c1.209412,0.496338 2.457214,2.004639 2.77301,3.351929c0.439148,1.87439 2.023865,2.655029 6.746094,3.323608c3.394592,0.480469 6.534973,0.38208 6.978577,-0.218628c0.443604,-0.601074 1.291504,-31.22998 1.884094,-68.064453c0.890991,-55.373535 1.329834,-67.323853 2.533813,-69.003418c1.223816,-1.707153 6.320618,-2.070313 31.926086,-2.27356c16.758484,-0.133301 32.871704,-0.64856 35.80719,-1.145264c4.338196,-0.734009 6.349609,-0.322021 10.744812,2.202393c2.974121,1.708008 5.749695,3.74707 6.167969,4.531006c0.418274,0.78418 0.459717,30.223267 0.091919,65.420166c-0.456238,43.65979 -0.34082,63.994263 0.363098,63.994263c0.681274,0 1.280762,-19.442383 1.764465,-57.222412c0.450806,-35.213135 1.123535,-57.873657 1.74884,-58.915405c0.558777,-0.931152 2.745178,-1.693115 4.858459,-1.693115c4.430725,0 5.91272,-2.49939 5.91272,-9.971924c0,-7.56543 1.86499,-8.986694 11.821411,-9.007813c10.296082,-0.021973 12.918396,-0.800781 13.683105,-4.063721c0.737854,-3.148926 9.130493,-4.635498 23.495483,-4.161377c18.585815,0.613403 19.466614,0.752441 19.804871,3.131348c0.592041,4.163086 4.688538,6.211182 14.275024,7.136963c5.181091,0.500488 10.278198,1.235107 11.327026,1.63269c1.846191,0.700195 1.887878,2.336426 1.309265,51.323242c-0.328674,27.829956 -0.254089,50.887695 0.16571,51.239014c0.674927,0.565063 2.234619,-24.885742 3.604614,-58.816406c1.52948,-37.881226 3.43988,-54.221558 6.778015,-57.973755c0.730469,-0.820923 7.964294,-1.545654 17.246887,-1.728027c8.793701,-0.172241 16.551086,-0.588501 17.238586,-0.924316c0.827087,-0.404053 1.25,-3.616211 1.25,-9.494995c0,-10.598511 1.175476,-10.43396 1.366699,0.191162c0.073303,4.072632 0.503113,7.912476 0.955078,8.532593c0.452148,0.620117 7.875305,2.041504 16.496094,3.15918l15.674255,2.031494l1.396301,5.41748c0.768066,2.979614 1.6698,12.115112 2.003967,20.301392l0.607605,14.883667l5.5,1.019165c3.025024,0.560303 6.547424,1.352051 7.827515,1.759521l2.327454,0.740234l-0.253784,83.831543c-0.265869,87.860596 -0.254272,88.118164 3.971191,88.040161c0.895203,-0.016724 2.752625,-1.200684 4.127625,-2.630859l2.5,-2.600708l0.699219,-59.191895c0.384583,-32.555176 0.932861,-60.016602 1.218567,-61.024658c0.339111,-1.197144 2.223389,-1.833374 5.428406,-1.833374c2.95813,0 5.364929,-0.744141 6.056335,-1.872437c0.741699,-1.210449 1.259949,-10.553345 1.466064,-26.424316c0.175293,-13.503784 0.62793,-24.970703 1.005798,-25.482422c0.377808,-0.511841 0.639832,10.754761 0.582214,25.036865c-0.057678,14.282227 0.180115,26.591675 0.52832,27.354858c0.348145,0.762939 2.829956,1.387451 5.515076,1.387451c2.68512,0 5.188477,0.671753 5.56311,1.492676c0.374573,0.821045 0.623779,6.763306 0.553772,13.2052c-0.153503,14.112183 0.555786,16.338745 4.180725,13.121826c2.163879,-1.920044 3.40979,-2.046631 8.241577,-0.836914c3.130798,0.783813 6.20282,0.979736 6.826599,0.435181c1.836914,-1.603027 6.015686,-1.396606 7.634216,0.377075c0.825012,0.904053 4.075928,1.983276 7.224304,2.398315c3.148376,0.414917 6.185913,1.140991 6.75,1.612915c0.655701,0.54895 1.025696,12.800537 1.025696,33.960938l0,33.102417l4.377625,0c2.407593,0 4.814087,-0.761841 5.347778,-1.693115c1.755798,-3.063599 5.274597,-33.015015 5.274597,-44.896851c0,-11.530518 0.025269,-11.648315 2.507019,-11.648315c2.503784,0 2.506165,0.012451 1.872253,9.819214c-0.348999,5.400513 -1.027161,10.398315 -1.506958,11.105713c-1.799133,2.653809 -0.894836,8.97522 1.719604,12.020752c2.695679,3.140381 3.201965,6.743164 1.953186,13.897339c-0.920288,5.272339 1.31897,8.686523 5.697571,8.686523c1.704895,0 3.9552,1.04834 5.00061,2.329712c1.443787,1.769531 3.870728,2.368774 10.095215,2.491821c4.506897,0.088989 9.23468,0.916138 10.506104,1.837646c1.271362,0.921631 2.963867,1.336548 3.761108,0.922363c0.79718,-0.414307 2.212097,0.452759 3.144104,1.927124c1.491089,2.358765 2.959106,2.678589 12.222351,2.661987c13.488037,-0.023315 14.837708,-0.535278 15.523621,-5.886719c0.299805,-2.338989 0.873413,-18.866089 1.274597,-36.727539l0.729614,-32.474854l3,-1.247559c1.649963,-0.685913 4.417969,-2.070801 6.151062,-3.077148c1.733215,-1.006836 4.293091,-1.8302 5.688782,-1.8302c2.245605,0 2.616333,-0.710205 3.221008,-6.171631c0.477112,-4.30896 1.383301,-6.793091 3.002197,-8.229736c1.275391,-1.131836 2.458008,-3.66333 2.62793,-5.62561c0.34729,-4.008545 2.651978,-5.351807 9.559082,-5.571289l4.25,-0.134766l0.215454,-34.197998c0.118408,-18.809204 0.230957,-38.277954 0.25,-43.264526c0.018921,-4.986328 0.484497,-9.623535 1.034546,-10.30542c0.885376,-1.096924 7.407715,-2.899414 20,-5.526733c3.766235,-0.785889 4.029175,-1.14502 4.5,-6.146362c0.275024,-2.921387 1.00708,-5.537476 1.626831,-5.813232c1.637085,-0.729004 2.532471,3.450928 1.369629,6.393677c-0.548096,1.386841 -0.99646,2.795288 -0.99646,3.129639c0,1.735107 6.86731,2.519043 30.812866,3.517944c14.854614,0.619873 26.743652,1.681641 27.302368,2.438232c0.626221,0.848145 1.062012,31.116455 1.187134,82.440796l0.197632,81.100464l7.593262,-0.088745c4.176147,-0.048706 8.268799,-0.439941 9.094727,-0.869141c1.167114,-0.606567 1.656494,-4.491211 2.196655,-17.435791c0.382202,-9.1604 0.939087,-16.986572 1.237427,-17.391357c0.29834,-0.404907 4.58606,-1.071899 9.528076,-1.482056c6.270142,-0.52063 9.254517,-1.335449 9.875488,-2.696167c0.760254,-1.66626 1.336914,-1.592285 3.96228,0.508057c2.28479,1.828003 6.205688,2.692749 15.292236,3.373291l12.219849,0.915161l0.607178,17.606934c0.333984,9.683594 0.671387,17.806885 0.75,18.05127c0.078491,0.244507 1.605347,0.308228 3.392822,0.141724c6.801147,-0.633545 14.75,0.145264 14.75,1.445313c0,0.744751 -1.912476,1.430786 -4.25,1.523926l-4.25,0.169434l4.5,1.084473c2.474976,0.596558 6.360718,1.129639 8.63501,1.185059c3.230713,0.078369 4.483887,0.821533 5.730591,3.39856c1.041504,2.152832 2.730957,3.446045 4.86499,3.724487l3.269409,0.426392l0.271118,26.748901c0.165161,16.294678 0.653809,26.748901 1.25,26.748901c0.53833,0 0.978882,-1.807007 0.978882,-4.015381c0,-4.801514 2.259033,-6.811768 7.684326,-6.838257c5.81543,-0.028198 8.088257,-1.278687 8.742798,-4.810547c0.328125,-1.770264 1.491211,-3.867432 2.584717,-4.660034c2.048584,-1.484985 2.765503,-5.408936 0.988159,-5.408936c-0.550049,0 -1,-1.218872 -1,-2.708618c0,-1.48999 0.666382,-2.70874 1.480957,-2.70874c1.57959,0 1.779053,-0.879272 3.533325,-15.575439c1.584473,-13.272461 4.006836,-30.785156 4.574585,-33.070068c1.461914,-5.88562 3.688477,8.79187 8.846558,58.318359c0.567871,5.453125 1.012085,6.379639 3.348999,6.984619c1.481934,0.383667 3.457031,0.144897 4.38916,-0.530762c0.932251,-0.675781 3.299561,-1.228516 5.260742,-1.228516c3.092407,0 3.565674,0.429321 3.565674,3.235107c0,2.620239 0.660156,3.402954 3.472778,4.117432c1.910156,0.485352 3.860229,1.819946 4.333618,2.965698c0.71814,1.737793 1.148315,1.489136 2.594116,-1.49939c1.362427,-2.816162 1.47876,-3.998169 0.543945,-5.52356c-0.926636,-1.512451 -0.88623,-2.438354 0.183105,-4.192749c1.069946,-1.755615 1.096924,-2.377563 0.122437,-2.822021c-0.6875,-0.312866 -1.25,-1.707397 -1.25,-3.098145c0,-1.390869 -0.738159,-3.088013 -1.640381,-3.771851c-0.902222,-0.683838 -1.321167,-1.943115 -0.930908,-2.798218c0.390137,-0.855103 1.075439,-1.248413 1.522949,-0.873901c0.447266,0.374146 1.938232,-0.5177 3.31311,-1.982544c1.374878,-1.464722 3.677856,-3.269897 5.117554,-4.01123c1.652222,-0.85083 2.617676,-2.375122 2.617676,-4.132446c0,-1.53186 0.5625,-3.062622 1.25,-3.402222c3.755859,-1.854492 23.196167,-4.430786 35.05896,-4.64624c2.095093,-0.037842 3.565674,-0.602295 3.268188,-1.25415c-0.627563,-1.375488 2.222046,-13.385132 3.412354,-14.381348c0.441284,-0.369263 2.007568,0.175293 3.480713,1.210327c3.157593,2.218506 10.230591,1.396118 12.670776,-1.473389c1.092773,-1.285156 3.603638,-1.834229 7.514404,-1.642944c5.549194,0.27124 8.316284,-0.870239 12.344604,-5.092529c0.824951,-0.864746 4.081177,-1.474243 7.235962,-1.354248c5.259644,0.199585 6.09021,0.679077 10,5.770874c4.246094,5.529419 4.304443,5.556519 13.831177,6.380737c5.261841,0.455078 10.275024,1.195679 11.140381,1.645142c1.093018,0.567993 1.783936,3.479248 2.262573,9.533447c0.712769,9.014648 1.686523,10.671631 3.529907,6.006714c0.588745,-1.490112 0.870117,-2.70874 0.625366,-2.70874c-0.244751,0 0.173462,-3.504517 0.929199,-7.78772c0.755859,-4.283203 1.443481,-14.187256 1.528198,-22.008545c0.084595,-7.821533 0.440186,-16.049438 0.790283,-18.28418c0.571655,-3.648682 1.069702,-4.105713 4.881714,-4.479492c3.993896,-0.391968 4.245239,-0.660156 4.245239,-4.528687c0,-2.9729 0.553955,-4.30835 2,-4.820435c1.256104,-0.444824 2,-1.84729 2,-3.77063c0,-4.471558 2.32605,-6.375977 7.198975,-5.894531l4.301025,0.425049l0.29541,-9.105103c0.247681,-7.632324 0.635376,-9.351685 2.396729,-10.628174c2.736572,-1.983765 4.119873,0.978882 4.807861,10.296875l0.5,6.772095l7.276855,0.880127c8.480591,1.025635 10.223145,2.519897 10.223145,8.765991c0,2.516235 0.449951,4.574707 1,4.574707c0.550049,0 1,-0.914185 1,-2.031494c0,-1.504883 1.166748,-2.031616 4.5,-2.031616c3.833252,0 4.5,0.401245 4.5,2.70874c0,4.940796 6.069214,10.835083 11.15686,10.835083c1.959839,0 2.015381,-0.662842 1.684814,-20.110596c-0.23877,-14.056274 -0.738037,-20.756592 -1.658569,-22.25647c-1.098389,-1.790161 -1.048584,-2.700928 0.300537,-5.489624c2.550293,-5.271362 3.619263,-25.510376 3.445435,-65.233765l-0.159912,-36.568359l4.24353,-12.189331c2.333984,-6.704224 6.029419,-17.304443 8.212036,-23.556396c2.998901,-8.589722 3.820679,-12.365967 3.364136,-15.457031c-0.393311,-2.663818 -0.098877,-4.846802 0.844238,-6.258179c1.110352,-1.661743 1.603638,-8.484619 2.113647,-29.236938c0.366089,-14.88855 0.90686,-27.609253 1.201904,-28.268677c1.300659,-2.906738 3.185181,6.0625 3.239746,15.4198c0.032593,5.586914 0.506104,12.595703 1.052124,15.575317c0.546021,2.979614 1.154541,10.47168 1.352295,16.649048c0.197632,6.177368 0.590332,11.544312 0.872681,11.926636c0.463623,0.62793 20.854858,3.343384 28.234497,3.76001l3,0.169556l0.26355,-9.480835c0.144897,-5.214355 0.672607,-10.699585 1.172607,-12.189331c0.500122,-1.48999 1.178101,-8.649048 1.506592,-15.909302c0.560669,-12.394653 1.931763,-19.981812 3.610718,-19.981812c1.553101,0 1.881104,4.68457 1.429688,20.416992c-0.280396,9.772217 -0.022949,18.580078 0.642334,21.983887c0.610596,3.123779 1.053101,7.508057 0.983276,9.742798c-0.069946,2.234497 -0.159302,5.891357 -0.198608,8.126221c-0.044189,2.501587 3.217529,13.171875 8.487061,27.764648l8.558716,23.70166l-0.799805,34.536743c-0.484985,20.942139 -0.428589,36.935547 0.143066,40.631226c0.518555,3.352051 1.028198,27.121338 1.132568,52.820679c0.258057,63.63269 0.144897,60.947021 2.568237,60.947021c2.135986,0 2.791504,-3.480103 0.822876,-4.368774c-0.647217,-0.292358 -0.841187,-1.267334 -0.430908,-2.166504c1.013184,-2.220215 2.608032,-0.674927 2.608032,2.526245c0,3.014038 5.126587,5.526367 5.788452,2.83667c0.241699,-0.981445 1.72522,-0.01709 3.837524,2.494873c1.894043,2.252319 4.327881,4.094971 5.408813,4.094971c1.080933,0 1.96521,0.555542 1.96521,1.234497c0,1.843262 2.820923,0.929443 5.026123,-1.627563c1.066528,-1.236816 2.627563,-1.890869 3.469238,-1.453369c1.818604,0.945068 4.40332,-1.679443 5.499512,-5.584473c0.61731,-2.199097 1.761108,-2.859497 5.315308,-3.069092c2.667114,-0.157227 6.388184,-1.672852 9.051758,-3.687012c2.487671,-1.880981 5.673828,-3.419922 7.080444,-3.419922c2.175171,0 2.557617,0.607666 2.557617,4.063232c0,2.234497 0.449951,4.06311 1,4.06311c0.550049,0 1.006958,-0.761963 1.015259,-1.692993c0.01062,-1.171509 0.241699,-1.233887 0.75,-0.202881c0.404175,0.819702 1.737183,2.2052 2.96228,3.078857c1.873413,1.335938 2.13501,1.262207 1.646118,-0.463013c-0.776978,-2.742676 2.231934,-4.203857 4.170288,-2.024902c1.249268,1.404053 1.76123,1.257202 2.886963,-0.827637c0.752563,-1.394043 1.210083,-3.648071 1.016602,-5.008667c-0.193481,-1.36084 0.301636,-2.813721 1.100342,-3.228882c1.157471,-0.601563 1.468506,-4.22998 1.532715,-17.878174c0.044189,-9.417847 0.606689,-19.862793 1.25,-23.211182c1.123657,-5.849854 1.352417,-6.132935 5.847656,-7.23938c4.428223,-1.089844 4.704468,-1.415771 5.171265,-6.101318c0.271362,-2.7229 0.553833,-7.997681 0.62793,-11.722168c0.158936,-7.999512 1.254395,-10.104614 4.033936,-7.753906c3.364624,2.845947 9.600708,2.061523 12.261597,-1.542358c2.20166,-2.981934 2.716187,-3.104248 7.489502,-1.779785c2.819214,0.782227 4.928467,1.854248 4.687378,2.382568c-1.332275,2.919556 7.343628,3.443115 10.109131,0.610229c2.237305,-2.291748 9.140503,-2.6073 14.94104,-0.682739c7.055542,2.34082 23.612793,3.054321 27.769165,1.196411c2.894409,-1.293701 4.067505,-1.31958 4.960815,-0.109741c1.441772,1.952515 10.154785,2.169189 9.27002,0.230225c-1.389648,-3.045288 11.731567,-0.137695 14.147949,3.135132c0.376953,0.510254 1.645386,0.927979 2.818726,0.927979c3.304565,0 4.533325,2.667725 4.533325,9.842896c0,6.000122 0.181641,6.514038 2.022461,5.722778c3.145996,-1.352173 7.876099,0.608154 9.131226,3.784668c0.710815,1.798584 1.0979,10.011841 1.032715,21.908447c-0.061157,11.15625 0.323853,19.86731 0.930664,21.05249c0.779663,1.522705 1.1604,1.60376 1.54248,0.328857c0.618408,-2.064575 4.290283,-2.182861 6.340454,-0.203979c1.130249,1.09082 0.637329,1.245117 -2,0.625854c-3.375366,-0.792603 -3.422119,-0.747803 -1.311157,1.259155c2.577026,2.450195 10.311157,3.77771 10.311157,1.769775c0,-0.753906 0.668091,-1.023438 1.484741,-0.598999c0.876343,0.455444 1.921265,-0.333252 2.550171,-1.924438c0.585938,-1.483154 1.480225,-2.349121 1.986938,-1.924927c1.018555,0.852539 5.978149,-3.099854 5.978149,-4.763916c0,-0.576538 -0.5625,-1.019897 -1.25,-0.985352c-3.480469,0.175049 -5.75,-0.503052 -5.75,-1.71814c0,-0.744873 1.055298,-1.35437 2.344971,-1.35437c1.289795,0 3.167358,-1.230713 4.172241,-2.734497c1.69165,-2.531738 2.132446,-5.591187 2.787231,-19.34436c0.134766,-2.831787 0.816772,-5.627563 1.515625,-6.212402c1.521484,-1.273682 2.5177,-14.812378 1.675293,-22.766235c-0.472412,-4.458374 -0.944092,-5.508179 -2.185303,-4.863037c-1.701904,0.884399 -1.696777,0.854126 1.115601,-6.618164c1.768188,-4.698242 1.780396,-5.242798 0.214844,-9.71106c-0.912231,-2.603394 -1.935791,-6.610718 -2.274536,-8.905029c-0.584595,-3.95874 0.036865,-4.910278 2.841431,-4.35083c0.389038,0.077759 0.973877,-1.830811 1.299561,-4.241333c0.770142,-5.697266 1.032471,-68.814575 0.398193,-95.802612c-0.271362,-11.546265 -0.12085,-28.423706 0.334473,-37.505737c1.008179,-20.113159 -0.290161,-48.897339 -2.280884,-50.563477c-1.148926,-0.961792 -1.134888,-1.72937 0.087524,-4.82312c0.799561,-2.02356 1.317749,-4.767456 1.151489,-6.097168c-0.511353,-4.092285 3.379395,-5.826904 14.506958,-6.467773c2.833252,-0.162842 3.280762,-0.733765 3.861328,-4.924683c0.701172,-5.0625 1.108643,-5.304077 8.11377,-4.808472c4.054443,0.287109 4.211548,0.140259 5.244385,-4.896729c0.585571,-2.856201 1.067261,-6.519897 1.07019,-8.14209c0.00647,-3.356689 4.347778,-8.562988 7.140503,-8.562988c1.502808,0 1.865112,-1.030884 1.865112,-5.306641c0,-7.342651 0.830566,-9.591553 3.54187,-9.591553c1.280396,0 3.482178,-0.594604 4.893066,-1.320801c2.427368,-1.250122 2.565674,-1.849609 2.57605,-11.173706c0.006104,-5.419067 0.292969,-12.163208 0.637573,-14.987061c0.598389,-4.904663 0.677368,-4.995239 1.768433,-2.031616c0.854736,2.322021 1.997314,3.102905 4.540649,3.102905c2.920898,0 3.509644,-0.563599 4.190063,-4.008789c0.535156,-2.710571 0.396606,-4.348389 -0.428101,-5.058105c-1.876953,-1.615356 -7.177979,-1.282837 -8.519653,0.534302c-0.933228,1.264038 -1.199951,0.16394 -1.199951,-4.950439c0,-6.284302 0.080933,-6.476074 1.828735,-4.333862c1.205322,1.477417 3.591431,2.241455 7,2.241455c4.809326,0 5.181763,-0.237061 5.321289,-3.385986c0.08252,-1.862183 0.194946,-4.147705 0.25,-5.078857c0.071777,-1.216064 -2.013306,-1.692871 -7.400024,-1.692871l-7.5,0l-0.313354,-4.401733c-0.299194,-4.203247 1.003052,-5.918945 2.313354,-3.047485c0.895508,1.96228 8.201782,1.678833 8.725342,-0.338501c0.241577,-0.931152 0.155029,-3.216675 -0.192139,-5.078979c-0.56311,-3.019287 -1.167603,-3.397949 -5.582275,-3.497681l-4.950928,-0.111938l-0.306152,-7.958008c-0.536621,-13.952881 -0.404663,-14.165527 8.790039,-14.165527c7.000366,0 8.077026,0.332153 9.048584,2.790771c1.509766,3.820679 5.180664,2.952881 6.076782,-1.436523c0.380249,-1.862183 0.743164,-11.30896 0.806396,-20.99292c0.115112,-17.640381 0.947998,-23.073486 3.091675,-20.170166c0.672485,0.910767 1.167603,9.362549 1.291626,22.047852c0.214722,21.971802 0.483154,23.111938 5.45105,23.157715c1.535645,0.01416 2.25,0.834839 2.25,2.584595c0,2.683838 -1.840698,4.208008 -5.081787,4.208008c-1.941895,0 -2.320679,1.192749 -1.935791,6.094727c0.328735,4.18457 2.094238,6.269897 4.931641,5.823853c2.00708,-0.31543 2.585938,0.19043 2.585938,2.259644c0,2.054932 -0.974121,2.926758 -4.25,3.804077c-3.515625,0.94165 -4.25,1.673584 -4.25,4.234741c0,4.684448 3.300781,8.181396 5.92627,6.278442c1.824585,-1.322632 2.223145,-1.05188 3.111328,2.111816c0.560181,1.99585 2.130981,5.419312 3.490479,7.607544c3.20874,5.164673 3.126587,7.552124 -0.278076,8.082642c-3.533447,0.550781 -4.259033,5.564209 -1.404175,9.703247c1.336304,1.937378 2.246826,5.769531 2.715576,11.428467c0.479614,5.791138 1.230713,8.894775 2.348755,9.705322c0.903809,0.655029 5.21814,1.86438 9.58728,2.687744c4.369019,0.822998 8.407104,2.125122 8.973145,2.894165c0.577271,0.783936 0.933228,6.273682 0.810303,12.500122c-0.31665,16.048218 -0.121338,16.718506 5.186035,17.796387c4.871338,0.989502 5.536377,1.812622 6.472412,8.010742c0.615967,4.079468 0.666138,4.107788 7.590332,4.265747c3.83374,0.087524 7.736328,0.632202 8.672485,1.210571c0.936157,0.578491 2.258789,0.585449 2.939209,0.015991c1.923218,-1.609863 24.1521,-1.915039 25.543823,-0.350586c0.670288,0.753418 2.109985,0.986816 3.199341,0.518555c2.777222,-1.193848 36.202148,-1.63269 36.727051,-0.482422c0.236816,0.518921 1.433594,0.590576 2.659424,0.159546c1.226074,-0.431274 3.623291,-0.910278 5.327393,-1.064453c1.703857,-0.153809 3.620361,-0.717163 4.258789,-1.251587c0.638428,-0.534424 1.944336,-0.655396 2.901611,-0.269287c3.433105,1.385132 15.926025,1.18689 26.075928,-0.413452c8.979004,-1.415771 10.641846,-1.357056 12.675293,0.447632c1.287354,1.142334 2.486816,1.533081 2.665283,0.868164c0.178711,-0.664795 5.499756,-1.634033 11.824707,-2.15332c6.324951,-0.519531 11.769287,-1.157471 12.098389,-1.417969c0.329346,-0.260498 5.36792,-1.085449 11.197021,-1.833496c7.182617,-0.921753 11.819336,-2.24646 14.386719,-4.109985c2.083496,-1.512329 4.43457,-2.749878 5.224365,-2.749878c0.789795,0 2.230713,-0.974121 3.20166,-2.164429c0.971191,-1.190186 2.244141,-1.763794 2.828857,-1.274414c0.748291,0.626465 1.062988,205.075684 1.062988,690.865112l0,689.975342l-1296.000061,0l-1295.999969,0l0,-544.233887zm1543.883209,-474.579834c0.146606,-6.881226 0.604126,-13.128296 1.016724,-13.882324c0.412476,-0.754028 0.817261,-4.20459 0.899048,-7.668457c0.133667,-5.647583 -0.054565,-6.225098 -1.824951,-5.5979c-1.085693,0.384521 -2.000732,1.69458 -2.033447,2.911377c-0.791748,29.470581 -0.705322,36.748779 0.436646,36.748779c0.877441,0 1.317383,-3.65564 1.505981,-12.511475zm477.116821,-19.993652c0,-0.744995 -0.675049,-1.354248 -1.5,-1.354248c-0.824951,0 -1.5,0.609253 -1.5,1.354248c0,0.744873 0.675049,1.35437 1.5,1.35437c0.824951,0 1.5,-0.609497 1.5,-1.35437zm31.140991,-2.70874c2.835938,0 4.393677,-1.795532 3.41626,-3.937988c-0.317871,-0.696167 -2.715088,-0.295898 -5.53064,0.923584c-3.996948,1.731079 -4.748657,2.513184 -3.840576,3.995239c0.783325,1.278442 1.448364,1.4104 2.171631,0.430908c0.573242,-0.776489 2.275757,-1.411743 3.783325,-1.411743zm-1893.141022,-18.284058c0,-1.117432 -0.730087,-2.031616 -1.622391,-2.031616c-1.328796,0 -1.397202,0.367798 -0.377609,2.031616c1.567505,2.557983 2,2.557983 2,0zm-139.75,-3.950317c0.137512,-0.682739 -0.3125,-1.495361 -1,-1.805664c-0.6875,-0.310669 -1.25,0.451294 -1.25,1.692871c0,2.293335 1.792816,2.383423 2.25,0.112793zm133.75,-3.498779c0,-0.744995 -0.449997,-1.354248 -1,-1.354248c-0.549988,0 -1,0.609253 -1,1.354248c0,0.744751 0.450012,1.35437 1,1.35437c0.550003,0 1,-0.609619 1,-1.35437zm-10.5,-16.929565c0,-0.745117 -1.6875,-1.543823 -3.75,-1.774902c-3.516693,-0.394165 -4.679108,0.741943 -3.035889,2.967407c1.041382,1.410522 6.785889,0.400879 6.785889,-1.192505zm16.106308,-3.148438c0.105194,-2.835083 -0.305206,-4.300781 -1.2043,-4.300781c-1.559204,0 -2.934402,5.86377 -1.904495,8.12085c1.228287,2.69165 2.945297,0.581665 3.108795,-3.820068zm-9.616898,1.811157c0.678894,-1.108032 0.949585,-3.019287 0.601593,-4.247437c-0.579407,-2.045044 -0.7995,-2.028809 -2.611908,0.192505c-1.088501,1.334229 -1.979095,3.245605 -1.979095,4.247437c0,2.43689 2.450714,2.318604 3.98941,-0.192505zm15.01059,-2.128906c0,-0.700928 -0.674988,-1.274292 -1.5,-1.274292c-1.546387,0 -1.986694,1.598022 -0.860489,3.123291c0.798889,1.082275 2.360489,-0.140991 2.360489,-1.848999zm-23.268402,-9.400513c0.335999,0 1.435699,1.010742 2.443695,2.24646c2.569519,3.149536 6.824707,0.549927 6.824707,-4.168945c0,-4.313599 -1.394989,-5.395508 -4.229279,-3.280151c-1.248901,0.932007 -3.058228,1.531372 -4.020721,1.331787c-0.962494,-0.199341 -1.75,0.242798 -1.75,0.982788c0,0.739746 -0.960907,1.539917 -2.135406,1.777832c-1.1745,0.238281 -2.80368,1.802734 -3.620392,3.477051c-1.412292,2.89502 -1.319885,3.138794 1.885406,4.973633l3.370392,1.929688l0.310394,-4.635254c0.170715,-2.549316 0.585205,-4.634888 0.921204,-4.634888zm146.26841,6.851685c0,-0.700806 -0.450005,-1.651123 -1,-2.11145c-0.550003,-0.460449 -1,0.113037 -1,1.274292c0,1.161499 0.449997,2.111694 1,2.111694c0.549995,0 1,-0.573486 1,-1.274536zm0,-9.560425c0,-1.48999 -0.450005,-2.708862 -1,-2.708862c-0.550003,0 -1,1.218872 -1,2.708862c0,1.489746 0.449997,2.70874 1,2.70874c0.549995,0 1,-1.218994 1,-2.70874zm-129.750008,-0.695801c-0.368393,-1.968506 -2.512299,-1.624512 -3.031799,0.48645c-0.292099,1.186768 0.202011,1.65271 1.416611,1.335815c1.025894,-0.2677 1.752701,-1.087524 1.615189,-1.822266zm130.172203,-12.233032c0.707001,-3.815186 -0.049896,-6.504028 -1.491295,-5.297607c-1.189903,0.996094 -1.224701,8.74585 -0.039299,8.74585c0.490395,0 1.1791,-1.551758 1.530594,-3.448242zm2124.577827,-54.790161c0,-0.744873 -0.675049,-1.35437 -1.5,-1.35437c-0.824951,0 -1.5,0.609497 -1.5,1.35437c0,0.744873 0.675049,1.35437 1.5,1.35437c0.824951,0 1.5,-0.609497 1.5,-1.35437zm-8.833252,-5.275757c0.183228,-0.666992 5.283203,-1.563354 11.333252,-1.991699c6.050049,-0.428467 14.150024,-1.724243 18,-2.879639c3.849976,-1.155151 11.949951,-2.335327 18,-2.622559c6.050049,-0.287109 11.69873,-0.902466 12.552979,-1.367798c0.854004,-0.464966 2.341064,-2.652832 3.304443,-4.86145c1.571045,-3.602173 1.792236,-9.619507 2.146973,-58.412598c0.310303,-42.697632 0.675049,-54.636719 1.695557,-55.51355c1.358887,-1.167358 4.295166,-1.420776 19.462158,-1.679443c5.039063,-0.085815 9.520508,-0.639038 9.95874,-1.228882c0.438232,-0.590088 0.69165,-6.395264 0.562988,-12.900024c-0.157715,-7.982544 0.180664,-12.526978 1.04126,-13.97937c0.868896,-1.466675 4.422119,-2.652222 11.158691,-3.7229c5.436035,-0.864136 10.231201,-1.862061 10.656006,-2.217651c1.50293,-1.258057 -0.245605,-5.75354 -2.874512,-7.390747c-1.546631,-0.962891 -6.547607,-1.61145 -11.915283,-1.545288c-7.540283,0.09314 -9.25,-0.25647 -9.25,-1.891602c0,-2.632446 -0.645508,-2.53186 -3.900879,0.607422c-1.756836,1.69458 -3.200684,2.202026 -4.106689,1.44397c-0.768311,-0.643188 -1.795898,-0.835449 -2.283691,-0.427368c-0.784912,0.657227 -5.318604,0.669922 -26.70874,0.075562c-3.024902,-0.084229 -7.074951,-0.062012 -9,0.049072c-1.925049,0.110962 -5.75,0.203247 -8.5,0.205322c-2.75,0.001831 -7.925049,0.108765 -11.5,0.237793c-3.574951,0.128662 -8.525024,0.141479 -11,0.028931c-6.189575,-0.282227 -21.425659,0.769287 -27.612549,1.906006l-5.112671,0.939209l-0.637329,10.212402c-0.816895,13.088623 -0.83728,148.967041 -0.023193,154.480225c0.530396,3.591187 1.11145,4.231201 4.25,4.681763c7.136597,1.024902 9.973877,0.960083 10.30249,-0.235107zm-79.338501,-252.559448c0.424927,-5.037476 -0.984009,-6.975586 -3.660767,-5.035156c-1.757813,1.273804 -2.323242,5.403076 -1.281494,9.357544c0.062744,0.237915 1.126465,0.237915 2.364014,0c1.63855,-0.315308 2.339233,-1.489868 2.578247,-4.322388zm4.171753,-15.669067c0,-2.190674 -0.449951,-4.359985 -1,-4.82019c-0.595093,-0.498291 -1,1.114624 -1,3.983032c0,2.651001 0.449951,4.820557 1,4.820557c0.550049,0 1,-1.792603 1,-3.983398zm7.171265,-3.675781c2.493774,-3.056641 2.300049,-6.756348 -0.404053,-7.713989c-2.95166,-1.045532 -3.657349,0.241333 -3.046387,5.553833c0.579102,5.035156 0.927002,5.253052 3.450439,2.160156zm11.828735,-5.352539c0,-1.037598 -0.900024,-1.886597 -2,-1.886597c-1.882568,0 -2.719116,2.637695 -1.402222,4.421387c0.973145,1.317993 3.402222,-0.491821 3.402222,-2.53479zm-10.199951,-12.992554c0.659912,-0.893677 1.199951,-3.0271 1.199951,-4.740356c0,-3.083618 -0.200928,-3.204468 -6.196655,-3.725952c-0.933228,-0.081055 -2.020752,-0.586548 -2.416748,-1.122681c-1.262573,-1.710083 -3.386597,-1.047607 -3.386597,1.056396c0,1.13916 0.892456,2.031616 2.031372,2.031616c1.837769,0 2.303833,0.848755 3.533081,6.43335c0.474121,2.153442 3.665039,2.194702 5.235596,0.067627zm-1.02002,-16.320313c0.99939,-1.650757 1.567017,-5.393433 1.335205,-8.803345c-0.064209,-0.943604 -1.443359,-1.692993 -3.115234,-1.692993c-2.811646,0 -3,0.325928 -3,5.191772c0,2.855469 0.300049,5.598267 0.666748,6.094727c1.054321,1.428345 2.996216,1.055054 4.113281,-0.790161zm-6.780029,-9.939453c0,-7.318848 -1.68042,-8.37793 -10.25,-6.459473c-3.120239,0.698486 -3.75,1.38562 -3.75,4.092041c0,4.011963 2.747314,5.648926 9.25,5.511841c4.23584,-0.089233 4.75,-0.429688 4.75,-3.144409zm-1866.000023,-35.093506c0,-1.029419 -0.450001,-2.248413 -1,-2.70874c-0.569401,-0.476563 -1,0.689941 -1,2.70874c0,2.018921 0.430599,3.185303 1,2.708618c0.549999,-0.460205 1,-1.679199 1,-2.708618zm10,-4.900146c0,-0.744873 -0.450005,-0.977661 -1,-0.517334c-0.549988,0.460327 -1,1.446411 -1,2.191284c0,0.744995 0.450012,0.977783 1,0.517456c0.549995,-0.460449 1,-1.446655 1,-2.191406zm3.309799,-20.746094c1.143799,-1.174561 1.4198,-2.184937 0.75,-2.745605c-1.610687,-1.348145 -1.267097,-4.963623 0.652397,-6.864624c1.459602,-1.445435 1.512199,-2.022339 0.356705,-3.908081c-1.250702,-2.041016 -1.506401,-2.027344 -3.302605,0.174072c-1.860085,2.279785 -2.0056,2.27771 -3.260597,-0.046875c-0.888802,-1.64624 -1.538101,-1.941406 -2.007706,-0.912476c-0.381592,0.836426 0.104507,2.715576 1.080406,4.17627c1.360199,2.035767 1.499802,3.027222 0.598,4.248535c-1.557098,2.108887 -1.485001,3.149048 0.394997,5.69519c1.893303,2.564087 2.4011,2.583862 4.738403,0.183594zm6.690201,-1.441284c0,-1.11731 -0.674988,-2.031616 -1.5,-2.031616c-0.825005,0 -1.5,0.914307 -1.5,2.031616c0,1.11731 0.674995,2.031494 1.5,2.031494c0.825012,0 1.5,-0.914185 1.5,-2.031494zm10.5,-10.157959c-0.802399,-1.758545 -3.5,-1.758545 -3.5,0c0,0.744995 0.926598,1.35437 2.058998,1.35437c1.1325,0 1.780914,-0.609375 1.441002,-1.35437zm-13.941101,-6.901001c1.185402,-2.597534 -1.709099,-7.996948 -4.286903,-7.996948c-1.338699,0 -2.118195,0.595703 -1.771996,1.354248c0.339912,0.744873 0.141502,1.35437 -0.441002,1.35437c-1.678398,0 -0.7547,3.225098 1.441002,5.031006c2.519897,2.072754 4.191795,2.157593 5.058899,0.257324zm-0.8862,-11.01416c4.651497,0.710205 6.314796,-0.642578 6.281601,-5.109253c-0.011787,-1.59021 -0.236504,-1.516724 -1.034401,0.338623c-1.290199,3.000244 -3.511803,3.05542 -4.346786,0.108521c-0.798111,-2.817261 1.213699,-4.634521 4.059486,-3.666992c1.182114,0.401733 2.420197,0.136719 2.751404,-0.589111c0.3312,-0.72583 -0.632202,-1.736938 -2.140907,-2.246704c-1.508698,-0.51001 -3.534195,-1.892944 -4.501198,-3.07312c-1.641396,-2.003418 -1.647697,-2.311157 -0.095001,-4.634766c1.315399,-1.968628 1.3694,-2.485229 0.258102,-2.470581c-3.1325,0.04126 -5.854698,1.706909 -5.201797,3.182983c0.374397,0.846436 -0.091499,0.690308 -1.0354,-0.347046c-2.379303,-2.614746 -2.8498,-1.487061 -3.348503,8.027344c-0.437393,8.344604 0.9636,13.655762 2.9077,11.022827c0.501404,-0.679199 2.952003,-0.92334 5.445702,-0.542725zm8.827301,-18.652954c-0.791901,-1.735596 -1.5,-1.735596 -1.5,0c0,0.744751 0.476601,1.35437 1.058998,1.35437c0.582504,0 0.780914,-0.609619 0.441002,-1.35437zm5.0411,-6.862183c0.920403,-2.016846 -0.146698,-3.113281 -2.061401,-2.118286c-0.883499,0.459351 -1.326401,1.448853 -0.9841,2.198853c0.8106,1.776489 2.215103,1.73938 3.045502,-0.080566zm-18.779297,-9.403809c-0.702507,-1.523193 -1.420403,-2.050781 -1.630402,-1.197754c-0.206299,0.838379 0.242195,2.054077 0.996696,2.701294c1.969315,1.689697 2.034615,1.534668 0.633705,-1.50354zm5.238197,-4.804932c0,-2.912476 -2.018997,-3.752075 -4.572304,-1.901123c-2.148994,1.557617 -2.220596,1.885498 -0.733597,3.358276c1.980598,1.961426 5.305901,1.048096 5.305901,-1.457153zm6,0.755249c1.212997,-1.061768 1.069412,-1.316895 -0.75,-1.33374c-1.237488,-0.011353 -2.25,0.588745 -2.25,1.33374c0,1.696777 1.061195,1.696777 3,0zm1544.000023,570.810303c0,-2.077637 0.337524,-3.226074 0.75,-2.55188c0.412476,0.674316 1.108765,1.591553 1.547363,2.03833c0.438599,0.447021 0.101074,1.595215 -0.75,2.55188c-1.333496,1.499023 -1.547363,1.217163 -1.547363,-2.03833zm213,-25.07605c0,-0.78894 -0.449951,-1.057617 -1,-0.597168c-0.550049,0.460205 -1,0.256714 -1,-0.452515c0,-0.709106 0.675049,-1.640137 1.5,-2.068848c1.020264,-0.530396 1.5,0.072998 1.5,1.886475c0,1.466309 -0.224976,2.666382 -0.5,2.666382c-0.275024,0 -0.5,-0.645508 -0.5,-1.434326zm-1320.001404,-4.321777c-0.000732,-0.186279 -0.669128,-5.477417 -1.485229,-11.758057c-1.494873,-11.505371 -1.448303,-13.224487 0.318909,-11.745361c1.269409,1.062622 4.481079,20.705078 3.6745,22.472778c-0.539673,1.182617 -2.504272,1.989868 -2.508179,1.03064zm1306.55426,-13.089478c-0.322021,-0.705811 -0.159302,-1.639771 0.361694,-2.075806c0.520996,-0.436035 1.210693,-0.215698 1.532715,0.48999c0.321899,0.705566 0.15918,1.639648 -0.361816,2.075684c-0.520996,0.436157 -1.210693,0.215698 -1.532593,-0.489868zm0.044922,-7.883789c-1.09021,-1.476685 -0.62146,-2.954346 1.402222,-4.421387c1.678589,-1.216675 2,-1.029907 2,1.161987c0,2.610107 -2.273438,4.788086 -3.402222,3.259399zm-2137.597809,-13.30481c0,-1.161255 0.450012,-1.734741 1,-1.274292c1.293915,1.083008 1.293915,3.385986 0,3.385986c-0.549988,0 -1,-0.950317 -1,-2.111694zm22,-1.871704c0,-0.700806 0.450012,-1.651245 1,-2.11145c0.550018,-0.460449 1,0.113159 1,1.274292c0,1.161377 -0.449982,2.111816 -1,2.111816c-0.549988,0 -1,-0.573608 -1,-1.274658zm-4.968201,-7.1427c0.031006,-1.699341 2.968201,-7.807983 2.968201,-6.17334c0,0.453857 0.259918,1.742554 0.577606,2.863525c0.349487,1.233643 -0.242798,2.633423 -1.5,3.544678c-1.603607,1.162109 -2.070313,1.108643 -2.045807,-0.234863zm-10,-8.291626c-0.019684,-1.541626 1.1091,-3.071167 2.968201,-4.021484c1.649994,-0.843506 3,-2.009277 3,-2.590942c0,-0.581787 0.675018,-1.057495 1.5,-1.057495c2.337921,0 1.761719,3.633057 -0.75,4.72876c-1.237488,0.540039 -2.638092,0.892944 -3.112396,0.784546c-0.474304,-0.108521 -1.472504,0.89209 -2.218201,2.223511c-1.297791,2.317505 -1.357208,2.314819 -1.387604,-0.066895zm35.968201,-8.772339c0,-0.709717 1.142792,-1.586426 2.539612,-1.94812c1.602783,-0.414795 2.4039,-0.098511 2.171692,0.858032c-0.456482,1.879761 -4.711304,2.864502 -4.711304,1.090088zm-35,-3.558105c0,-1.073242 0.402802,-2.288818 0.895203,-2.70105c1.029419,-0.861572 2.270691,2.622192 1.369202,3.84314c-1.072998,1.453369 -2.264404,0.852539 -2.264404,-1.14209zm9,-0.179077c0,-1.261353 0.68042,-1.952393 1.667114,-1.693115c2.508789,0.659058 2.853302,3.823975 0.416199,3.823975c-1.228302,0 -2.083313,-0.874634 -2.083313,-2.130859zm52.918808,-10.396973c-0.044708,-0.186646 -0.172104,-2.014771 -0.283096,-4.063232c-0.259109,-4.783936 2.582489,-5.094238 4.143997,-0.452637c0.886597,2.635498 0.804596,3.426147 -0.421204,4.063232c-1.573898,0.817993 -3.297592,1.044678 -3.439697,0.452637zm1098.333359,-39.615723c-0.011108,-2.979736 0.18457,-4.358032 0.434875,-3.063232c0.250305,1.294922 0.259399,3.73291 0.020203,5.41748c-0.239197,1.684937 -0.44397,0.625366 -0.455078,-2.354248zm-384.875763,-8.750488c0.365112,-5.930298 0.919312,-25.280884 1.231506,-43.001465c0.622009,-35.306519 2.368988,-46.72644 2.540405,-16.606567c0.128387,22.566162 0.098694,28.50708 -0.204895,40.932495c-0.131927,5.400391 0.087189,13.355835 0.486877,17.678467c0.761719,8.235962 -0.199799,11.779053 -3.196503,11.779053c-1.289978,0 -1.42038,-1.639648 -0.857391,-10.781982zm-696.297501,-75.108032c-0.043396,-1.427612 0.193008,-2.227783 0.525299,-1.77771c0.332306,0.449951 0.367798,1.618164 0.078903,2.596069c-0.319199,1.0802 -0.556198,0.759521 -0.604202,-0.818359zm558.921097,-76.71521c0,-2.417114 0.416595,-3.794189 1,-3.305908c1.302002,1.089844 1.302002,7.449219 0,7.449219c-0.549988,0 -1,-1.864624 -1,-4.143311zm-278.999992,-207.365723c0,-3.848389 0.1651,-6.743286 0.366898,-6.432983c0.851303,1.309082 1.311802,13.430908 0.5103,13.430908c-0.482498,0 -0.877197,-3.149048 -0.877197,-6.997925zm-0.270802,-10.072998c-0.4011,-0.543091 -0.676598,-4.390381 -0.612301,-8.549561l0.116901,-7.56189l0.9025,7.370483c0.9445,7.713745 0.819302,10.402222 -0.407101,8.740967zm49.428699,-4.599243c0,-1.862305 0.226997,-2.624146 0.504402,-1.692993c0.277397,0.931152 0.277397,2.454834 0,3.386108c-0.277405,0.93103 -0.504402,0.169189 -0.504402,-1.693115zm-0.157898,-7.369019c0,-2.378906 0.600098,-2.729248 1.457298,-0.850708c0.316399,0.693359 0.118004,1.643677 -0.441002,2.111328c-0.558998,0.468018 -1.016296,-0.099365 -1.016296,-1.26062zm-51.129101,-18.025635c-0.070999,-2.793335 -0.2561,-7.669189 -0.411301,-10.835083c-0.155201,-3.165771 0.127899,-5.755981 0.629101,-5.755981c0.501202,0 0.9174,3.504272 0.9249,7.787598c0.007599,4.283203 0.285,9.159058 0.616699,10.835083c0.361801,1.828369 0.1563,3.047363 -0.513699,3.047363c-0.614101,0 -1.174702,-2.285645 -1.245701,-5.078979zm4.144402,-27.007568c0.011097,-4.704712 0.2845,-5.949097 0.984699,-4.481689c1.271599,2.665039 1.271599,9.093384 0,10.157837c-0.614399,0.51416 -0.994102,-1.674438 -0.984699,-5.676147zm43.063595,1.72583c-0.043396,-1.427612 0.193001,-2.227783 0.525307,-1.777588c0.332298,0.449951 0.367798,1.618164 0.078896,2.595947c-0.319199,1.080322 -0.556198,0.759399 -0.604202,-0.818359zm1065.921127,-437.576599c0,-3.781067 2.422485,-4.668945 3.393066,-1.243591c1.01416,3.57959 0.698242,4.629578 -1.393066,4.629578c-1.466675,0 -2,-0.902954 -2,-3.385986z" id="path2177"/>
 </g>
</svg>